<svg width="271" height="467" viewBox="0 0 271 467" fill="none" xmlns="http://www.w3.org/2000/svg">
<path opacity="0.2" d="M110.021 466.301C139.008 466.301 162.507 458.302 162.507 448.435C162.507 438.567 139.008 430.568 110.021 430.568C81.0331 430.568 57.5339 438.567 57.5339 448.435C57.5339 458.302 81.0331 466.301 110.021 466.301Z" fill="#4380FF"/>
<path d="M261.021 196.112C255.369 194.139 250.985 188.987 249.37 182.411L246.717 171.998C246.371 170.792 244.871 170.792 244.525 171.998L241.872 182.411C240.142 188.987 235.758 194.139 230.221 196.112L221.339 199.291C220.301 199.62 220.301 201.373 221.339 201.812L230.221 204.99C235.874 206.963 240.257 212.115 241.872 218.692L244.525 229.105C244.871 230.31 246.371 230.31 246.717 229.105L249.37 218.692C251.101 212.115 255.484 206.963 261.021 204.99L269.904 201.812C270.942 201.483 270.942 199.729 269.904 199.291L261.021 196.112Z" fill="#F7D33E"/>
<path d="M214.994 282.485C211.88 281.389 209.457 278.539 208.534 274.812L207.035 269.003C206.804 268.345 205.997 268.345 205.881 269.003L204.382 274.812C203.459 278.429 201.036 281.279 197.922 282.485L192.961 284.239C192.385 284.458 192.385 285.444 192.961 285.663L197.922 287.417C201.036 288.513 203.459 291.363 204.382 295.09L205.881 300.899C206.112 301.557 206.919 301.557 207.035 300.899L208.534 295.09C209.457 291.473 211.88 288.623 214.994 287.417L219.955 285.663C220.531 285.444 220.531 284.458 219.955 284.239L214.994 282.485Z" fill="#F7D33E"/>
<path d="M93.4095 17.4476C89.6028 16.0226 86.4882 12.5151 85.3346 8.02109L83.4889 0.89643C83.2582 0.0195493 82.22 0.0195493 81.9893 0.89643L80.1436 8.02109C78.9901 12.5151 75.9908 16.0226 72.0687 17.4476L65.9549 19.6398C65.2628 19.859 65.2628 21.0647 65.9549 21.3935L72.0687 23.5857C75.8755 25.0107 78.9901 28.5182 80.1436 33.0122L81.9893 40.1369C82.22 41.0137 83.2582 41.0137 83.4889 40.1369L85.3346 33.0122C86.4882 28.5182 89.4874 25.0107 93.4095 23.5857L99.5234 21.3935C100.215 21.1743 100.215 19.9686 99.5234 19.6398L93.4095 17.4476Z" fill="#F7D33E"/>
<path d="M246.256 52.5227C244.179 51.8651 242.564 50.1113 241.987 47.9191L240.949 44.4116C240.834 43.9732 240.257 43.9732 240.142 44.4116L239.104 47.9191C238.527 50.1113 236.912 51.8651 234.835 52.5227L231.605 53.6188C231.259 53.7284 231.259 54.3861 231.605 54.4957L234.835 55.5918C236.912 56.2495 238.527 58.0032 239.104 60.1954L240.142 63.703C240.257 64.1414 240.834 64.1414 240.949 63.703L241.987 60.1954C242.564 58.0032 244.179 56.2495 246.256 55.5918L249.486 54.4957C249.832 54.3861 249.832 53.7284 249.486 53.6188L246.256 52.5227Z" fill="#F7D33E"/>
<path d="M23.9654 252.123C21.4276 251.246 19.5819 249.163 18.7744 246.533L17.6209 242.258C17.5055 241.71 16.8134 241.71 16.698 242.258L15.5445 246.533C14.737 249.273 12.8913 251.356 10.3535 252.123L6.43139 253.438C5.96997 253.548 5.96997 254.315 6.43139 254.425L10.3535 255.74C12.8913 256.617 14.737 258.699 15.5445 261.33L16.698 265.605C16.8134 266.153 17.5055 266.153 17.6209 265.605L18.7744 261.33C19.5819 258.59 21.4276 256.507 23.9654 255.74L27.8875 254.425C28.3489 254.315 28.3489 253.548 27.8875 253.438L23.9654 252.123Z" fill="#F7D33E"/>
<path d="M15.7752 84.5288C13.6988 83.8712 12.0838 82.1174 11.507 79.9252L10.4688 76.4177C10.3535 75.9793 9.77669 75.9793 9.66133 76.4177L8.62314 79.9252C8.04636 82.1174 6.43139 83.8712 4.35499 84.5288L1.12503 85.625C0.778962 85.7346 0.778962 86.3922 1.12503 86.5018L4.35499 87.5979C6.43139 88.2556 8.04636 90.0094 8.62314 92.2016L9.66133 95.7091C9.77669 96.1475 10.3535 96.1475 10.4688 95.7091L11.507 92.2016C12.0838 90.0094 13.6988 88.2556 15.7752 87.5979L19.0051 86.5018C19.3512 86.3922 19.3512 85.7346 19.0051 85.625L15.7752 84.5288Z" fill="#F7D33E"/>
<path d="M96.8701 205.1L31.3481 192.933" stroke="#FC974C" stroke-width="14.3806" stroke-miterlimit="10" stroke-linecap="round" stroke-linejoin="round"/>
<path d="M5.3932 199.839C12.3145 208.717 23.8501 207.621 32.271 201.921C37.5774 198.304 40.4613 190.96 34.4628 183.069C28.4643 175.177 20.5048 174.19 9.19993 179.999C-1.64349 185.48 -1.18207 191.509 5.3932 199.839Z" fill="#FC974C"/>
<path d="M16.5827 188.001C16.5827 188.001 16.2366 192.495 10.1228 193.372" stroke="#CE5B34" stroke-width="2" stroke-miterlimit="10" stroke-linecap="round" stroke-linejoin="round"/>
<path d="M14.8524 199.072C14.8524 199.072 16.9288 195.235 13.0067 192.933" stroke="#CE5B34" stroke-width="2" stroke-miterlimit="10" stroke-linecap="round" stroke-linejoin="round"/>
<path d="M25.1191 194.139L20.6202 196.77C19.4666 197.427 18.1977 197.976 16.9288 198.195L10.815 199.4C7.00823 200.168 4.58577 203.346 5.39325 206.525C6.20074 209.594 10.0075 211.458 13.4681 210.69L23.5041 208.717C24.5423 208.498 25.5805 207.95 26.5033 207.292L35.6164 200.277L25.1191 194.139Z" fill="#FC974C"/>
<path d="M21.6583 194.139L17.1595 199.4L8.16174 200.497" stroke="#CE5B34" stroke-width="2" stroke-miterlimit="10" stroke-linecap="round" stroke-linejoin="round"/>
<path d="M175.427 229.872C164.93 225.159 152.241 222.419 138.513 222.419C123.748 222.419 110.021 225.597 99.1772 230.968C90.2949 245.437 183.733 247.848 175.427 229.872Z" fill="#2B895C"/>
<path d="M108.521 219.24C108.521 241.381 121.902 259.248 138.514 259.248C160.546 259.248 166.891 241.381 166.891 219.24C166.891 197.099 155.125 179.232 138.514 179.232C122.018 179.232 108.521 197.099 108.521 219.24Z" fill="#FC974C"/>
<path d="M197.46 163.229C193.307 153.912 188.347 150.515 183.848 152.268C183.502 152.378 183.271 152.488 183.041 152.707C179.349 155.228 177.388 160.927 181.195 169.696C185.348 179.013 192.269 185.151 196.768 183.398C198.383 182.74 199.421 181.205 199.998 179.013C200.921 175.067 200.113 169.258 197.46 163.229Z" fill="#2B895C"/>
<path d="M177.504 172.984L228.145 131.661" stroke="#FC974C" stroke-width="14.3806" stroke-miterlimit="10" stroke-linecap="round" stroke-linejoin="round"/>
<path d="M264.366 126.619C262.059 139.444 241.641 141.965 229.644 140.759C221.916 139.992 219.378 135.388 220.762 123.989C222.146 112.589 229.644 107.109 244.756 106.89C259.06 106.561 266.443 115.33 264.366 126.619Z" fill="#FC974C"/>
<path d="M229.183 138.348L236.104 142.074C236.796 142.403 237.604 142.513 238.411 142.513H248.678C252.254 142.513 255.369 139.882 255.599 136.484C255.83 132.758 252.716 129.688 248.793 129.688H240.603L233.797 126.948" fill="#FC974C"/>
<path d="M229.183 138.348L236.104 142.074C236.796 142.403 237.604 142.513 238.411 142.513H248.678C252.254 142.513 255.369 139.882 255.599 136.484C255.83 132.758 252.716 129.688 248.793 129.688H240.603L233.797 126.948" stroke="#CE5B34" stroke-width="2" stroke-miterlimit="10" stroke-linecap="round" stroke-linejoin="round"/>
<path d="M243.372 117.302C243.372 117.302 247.986 122.235 243.833 128.702" stroke="#CE5B34" stroke-width="2" stroke-miterlimit="10" stroke-linecap="round" stroke-linejoin="round"/>
<path d="M254.215 117.193C254.215 117.193 258.368 123.989 254.215 130.565" stroke="#CE5B34" stroke-width="2" stroke-miterlimit="10" stroke-linecap="round" stroke-linejoin="round"/>
<path d="M196.768 183.398C193.769 184.822 189.385 177.15 185.233 167.723C181.426 158.954 181.887 153.584 183.041 152.707C183.041 152.707 184.31 152.159 185.579 151.939C186.732 151.83 187.886 152.049 187.77 151.939C179.119 148.98 162.392 157.53 141.513 169.367C126.17 178.136 71.0305 180.109 68.9541 189.865C57.7646 242.477 111.751 204.004 108.06 210.252C103.215 218.582 100.562 225.597 99.1773 230.859C110.021 225.488 123.633 222.309 138.514 222.309C152.241 222.309 165.045 225.049 175.427 229.763C175.312 229.653 175.312 229.543 175.197 229.324C166.891 213.54 164.699 196.989 166.776 194.468C169.66 190.961 188.462 187.563 196.653 183.617C198.614 182.63 199.652 180.986 199.883 178.904C199.537 181.205 198.383 182.63 196.768 183.398Z" fill="#4CFFB3"/>
<path d="M163.315 190.303C163.315 190.303 164.93 192.276 165.853 193.701" stroke="#2B895C" stroke-width="2" stroke-miterlimit="10" stroke-linecap="round" stroke-linejoin="round"/>
<path d="M140.475 199.729C138.052 198.852 136.091 196.66 135.399 193.701L134.245 189.207C134.13 188.659 133.438 188.659 133.323 189.207L132.169 193.701C131.477 196.551 129.516 198.852 127.093 199.729L123.171 201.154C122.71 201.373 122.71 202.031 123.171 202.25L127.093 203.675C129.516 204.552 131.477 206.744 132.169 209.704L133.323 214.198C133.438 214.746 134.13 214.746 134.245 214.198L135.399 209.704C136.091 206.854 138.052 204.552 140.475 203.675L144.397 202.25C144.858 202.031 144.858 201.373 144.397 201.154L140.475 199.729Z" fill="#0E45A8"/>
<path d="M101.369 304.297C101.369 304.297 110.251 314.601 105.176 320.629C100.1 326.658 82.22 340.14 63.7631 343.319C45.3062 346.497 42.0762 345.292 40.3459 340.25C38.6156 335.208 34.9242 317.999 56.3803 306.928C77.8364 295.857 101.369 304.297 101.369 304.297Z" fill="#F7D33E"/>
<path d="M59.6103 334.111C78.1826 331.59 96.5241 318.766 101.83 312.957C103.215 311.422 103.676 309.449 103.561 307.476C102.407 305.503 101.254 304.297 101.254 304.297C101.254 304.297 78.644 294.761 57.0725 305.832C41.1534 314.053 38.1542 326.548 38.8463 334.002C41.7302 335.756 47.2673 335.865 59.6103 334.111Z" fill="#383838"/>
<path d="M74.7219 308.024C74.7219 308.024 69.0695 300.9 59.0336 302.982" stroke="white" stroke-width="3" stroke-miterlimit="10" stroke-linecap="round" stroke-linejoin="round"/>
<path d="M64.6859 313.943C64.6859 313.943 59.6103 308.901 49.5743 311.093" stroke="white" stroke-width="3" stroke-miterlimit="10" stroke-linecap="round" stroke-linejoin="round"/>
<path d="M131.015 262.536C131.015 262.536 88.1031 255.521 86.4881 257.384C84.8731 259.138 102.061 285.773 103.099 306.709C103.099 306.709 86.7188 296.077 61.2252 304.407C61.2252 304.407 40.4612 236.23 59.9563 230.968C79.4514 225.707 111.29 232.503 111.29 232.503L131.015 262.536Z" fill="#4380FF"/>
<path d="M83.1428 253.657C83.1428 253.657 84.7578 255.63 85.6806 257.055" stroke="#0E45A8" stroke-width="2" stroke-miterlimit="10" stroke-linecap="round" stroke-linejoin="round"/>
<path d="M159.162 343.976C165.045 358.883 155.701 407.002 115.212 401.302C102.292 399.439 100.561 387.93 101.138 378.723C102.407 360.308 120.979 340.359 131.823 337.509C157.778 330.604 159.162 343.976 159.162 343.976Z" fill="#F7D33E"/>
<path d="M153.74 338.715C159.623 351.21 153.164 392.205 117.519 391.328C81.8739 390.451 117.749 333.125 134.13 336.413C150.51 339.921 153.74 338.715 153.74 338.715Z" fill="#383838"/>
<path d="M137.591 358.226C137.591 358.226 131.707 354.828 122.479 355.814" stroke="white" stroke-width="3" stroke-miterlimit="10" stroke-linecap="round" stroke-linejoin="round"/>
<path d="M133.207 366.447C133.207 366.447 128.247 363.815 119.018 364.912" stroke="white" stroke-width="3" stroke-miterlimit="10" stroke-linecap="round" stroke-linejoin="round"/>
<path d="M162.507 236.12C155.471 230.639 132.4 219.678 106.099 233.599C104.022 234.695 102.869 236.777 103.099 238.97C103.676 244.889 107.137 256.507 124.671 261.769C127.324 262.536 128.939 264.947 128.708 267.578C127.67 278.977 124.094 309.778 115.788 338.605C115.212 340.688 115.904 342.99 117.749 344.415C124.209 349.457 140.821 358.335 160.662 338.824C161.815 337.728 162.392 336.303 162.277 334.769C161.815 323.808 160.2 277.004 162.392 264.618C164.122 255.192 164.584 244.231 164.699 240.614C164.815 238.86 164.007 237.216 162.507 236.12Z" fill="#4380FF"/>
<path d="M109.213 233.27C109.213 233.27 111.751 234.366 112.905 236.339" stroke="#0E45A8" stroke-width="2" stroke-miterlimit="10" stroke-linecap="round" stroke-linejoin="round"/>
<path d="M77.1443 86.3923C41.1534 108.753 32.9631 128.154 55.3421 180.328C77.7211 232.503 135.63 198.304 148.088 189.316C160.431 180.328 207.611 149.747 167.929 106.451C128.247 63.1549 103.676 69.8412 77.1443 86.3923Z" fill="#FC974C"/>
<path d="M113.712 118.07C113.712 118.07 123.863 116.535 126.863 111.164C127.209 110.507 128.362 110.507 128.593 111.274C129.516 113.466 130.554 116.974 130.323 120.481C129.862 126.29 113.712 118.07 113.712 118.07Z" fill="#383838"/>
<path d="M43.4605 114.891C43.4605 114.891 37.3467 78.3908 59.7257 67.7586C82.1047 57.1264 111.751 69.9508 111.751 69.9508C111.751 69.9508 106.56 96.9149 85.6807 106.999C64.8013 117.083 43.4605 114.891 43.4605 114.891Z" fill="#0E45A8"/>
<path d="M43.4605 114.891C43.4605 114.891 64.9166 117.193 85.796 107.109C106.675 97.0246 111.866 70.0605 111.866 70.0605C111.866 70.0605 107.944 68.4164 101.946 66.6626C98.139 72.9104 94.3323 83.1041 83.835 89.7903C68.3773 99.7649 48.0747 102.944 42.8837 102.615C42.653 109.739 43.4605 114.891 43.4605 114.891Z" fill="#4380FF"/>
<path d="M130.669 87.7077C135.63 73.0199 132.861 63.7031 132.515 39.0408C132.4 31.9161 133.553 24.4626 136.668 17.9956C139.206 12.5151 146.934 2.65021 154.548 5.60969C162.392 8.56916 158.701 18.7629 156.048 23.805C153.625 28.6278 151.318 33.6699 150.626 38.9312C150.395 40.3561 149.357 46.275 150.972 47.5904C154.086 50.1114 160.431 38.9312 161.469 37.1774C167.698 27.2029 181.772 18.7629 194.346 21.3935C199.075 22.38 205.766 26.2164 204.612 31.6969C203.343 37.6158 193.423 41.1234 188.232 42.9867C179.003 46.3847 171.159 50.0018 164.122 56.7976C161.008 59.7571 153.51 68.5259 163.43 65.4568C174.158 62.1685 189.616 60.634 199.421 66.9914C203.343 69.5124 209.111 76.9659 204.497 81.2407C200.459 84.9674 191.346 83.4329 186.501 82.7752C178.542 81.5695 169.775 78.9389 161.7 81.0215C155.355 82.6656 150.28 87.05 147.396 92.7497C147.396 92.7497 143.128 95.0516 135.86 92.7497C128.939 90.3383 130.669 87.7077 130.669 87.7077Z" fill="#FC974C"/>
<path d="M94.7937 137.8C94.7937 150.405 104.138 163.12 118.211 163.12C132.284 163.12 141.859 152.926 141.859 140.211C141.859 127.606 132.284 117.302 118.211 117.302C104.138 117.302 94.7937 125.194 94.7937 137.8Z" fill="white"/>
<path d="M123.287 143.828C121.441 143.499 119.826 141.965 119.48 140.211C118.903 137.471 120.749 135.059 123.402 134.621C123.863 134.511 124.209 134.073 124.094 133.634C123.171 131.004 120.057 123.769 114.058 125.962C110.367 127.277 107.944 129.908 112.674 143.39C117.173 156.214 121.095 157.749 124.786 156.543C128.016 155.556 130.323 153.474 127.67 144.047C127.555 143.609 126.978 143.28 126.517 143.499C125.594 143.828 124.44 144.047 123.287 143.828Z" fill="#383838"/>
<path d="M148.371 163.686C155.639 152.725 156.593 140.883 150.502 137.236C144.41 133.59 133.581 139.519 126.312 150.48C119.044 161.441 118.09 173.283 124.181 176.93C130.272 180.576 141.102 174.647 148.371 163.686Z" fill="#FC974C"/>
<path d="M56.0343 154.131C56.0343 154.131 70.223 164.325 91.2177 165.531C91.2177 165.531 84.8732 175.286 63.417 174.3" stroke="#383838" stroke-width="3" stroke-miterlimit="10" stroke-linecap="round" stroke-linejoin="round"/>
<path d="M88.4492 188.659C87.2956 188.111 87.8724 186.576 89.1413 186.795C94.1016 187.782 99.9847 188.001 104.022 185.261C108.752 182.192 109.213 178.794 108.636 176.492C108.406 175.615 109.444 174.957 110.251 175.396C114.866 177.807 123.171 177.478 130.323 172.656C136.552 168.49 142.32 159.941 143.589 154.132C143.82 153.145 145.435 153.364 145.55 154.351C147.165 162.243 149.472 182.411 132.4 191.947C117.865 200.387 99.0619 193.81 88.4492 188.659Z" fill="#383838"/>
<path d="M146.473 169.367C133.899 170.025 123.633 181.205 122.248 195.564C125.824 195.016 129.285 193.92 132.515 192.056C142.32 186.576 145.666 177.588 146.473 169.367Z" fill="#E74DCB"/>
<path d="M128.708 77.9524C128.708 77.9524 125.132 87.05 135.86 92.6402C144.743 97.2438 152.01 91.8729 152.01 91.8729" stroke="#F7D33E" stroke-width="8.0979" stroke-miterlimit="10" stroke-linecap="round"/>
<path d="M69.9923 126.4C35.2703 135.607 36.5392 129.688 36.0778 117.302C35.7317 107.437 39.4231 104.916 44.268 105.355C49.1129 105.793 69.7616 102.615 85.45 92.5305C101.138 82.4463 101.83 64.7991 110.136 64.0318C115.904 63.4838 130.554 69.7316 129.285 76.9658C128.016 84.0905 110.482 115.658 69.9923 126.4Z" fill="#0E45A8"/>
<path d="M99.4079 76.9658C98.8312 77.9523 98.2544 78.8292 97.6776 79.8157C98.3697 80.0349 99.0619 80.1445 99.8694 80.4733C104.714 82.1175 111.866 86.0635 118.903 95.2707C119.595 94.3938 120.287 93.517 120.979 92.6401C113.251 82.7752 105.291 78.61 99.4079 76.9658Z" fill="#4380FF"/>
<path d="M79.3361 96.038C83.0274 99.9839 88.5645 107.218 92.1405 117.522C93.1787 116.973 94.1016 116.425 95.0244 115.877C91.4484 105.793 86.142 98.6686 82.2199 94.5034C81.2971 95.0515 80.2589 95.5995 79.3361 96.038Z" fill="#4380FF"/>
<path d="M56.1496 104.04C54.8807 104.259 53.7271 104.478 52.5736 104.697C51.7661 109.849 52.6889 117.741 58.8027 129.14C59.8409 128.921 60.9945 128.702 62.148 128.373C55.5728 116.206 55.1114 108.534 56.1496 104.04Z" fill="#4380FF"/>
</svg>
